<?xml version="1.0" encoding="UTF-8"?>
<svg width="537px" height="97px" viewBox="0 0 537 97" version="1.1" xmlns="http://www.w3.org/2000/svg" xmlns:xlink="http://www.w3.org/1999/xlink">
  <!-- Generator: Sketch 42 (36781) - http://www.bohemiancoding.com/sketch -->
  <title>Group</title>
  <desc>Created with Sketch.</desc>
  <defs>
    <linearGradient x1="50%" y1="100%" x2="50%" y2="0%" id="linearGradient-1">
      <stop stop-color="#93C0FF" offset="0%"></stop>
      <stop stop-color="#4990E2" stop-opacity="0.2" offset="100%"></stop>
    </linearGradient>
    <linearGradient x1="50%" y1="100%" x2="50%" y2="0%" id="linearGradient-2">
      <stop stop-color="#93C0FF" offset="0%"></stop>
      <stop stop-color="#4990E2" stop-opacity="0.2" offset="100%"></stop>
    </linearGradient>
  </defs>
  <g id="Page-1" stroke="none" stroke-width="1" fill="none" fill-rule="evenodd">
    <g id="180---iPhone-6-Plus-Copy" transform="translate(-6.000000, -53.000000)">
      <g id="Group" transform="translate(2.000000, 27.000000)">
        <rect id="Rectangle" fill="url(#linearGradient-1)" transform="translate(28.284271, 78.426407) rotate(-45.000000) translate(-28.284271, -78.426407) " x="18.2842712" y="48.4264069" width="20" height="60" rx="10"></rect>
        <rect id="Rectangle-Copy" fill="url(#linearGradient-1)" transform="translate(28.284271, 50.426407) rotate(-135.000000) translate(-28.284271, -50.426407) " x="18.2842712" y="20.4264069" width="20" height="60" rx="10"></rect>
        <rect id="Rectangle-Copy-3" fill="url(#linearGradient-2)" transform="translate(142.284271, 79.500000) scale(-1, 1) rotate(-45.000000) translate(-142.284271, -79.500000) " x="132.284271" y="49.5" width="20" height="60" rx="10"></rect>
        <rect id="Rectangle-Copy-2" fill="url(#linearGradient-1)" transform="translate(142.284271, 50.500000) scale(-1, 1) rotate(-135.000000) translate(-142.284271, -50.500000) " x="132.284271" y="20.5" width="20" height="60" rx="10"></rect>
        <circle id="Oval" fill="#93C0FF" cx="14" cy="64.1421356" r="10"></circle>
        <circle id="Oval-Copy" fill="#93C0FF" cx="156" cy="65.2157288" r="10"></circle>
        <text id="5" font-family="FZCHYFW--GB1-0, FZCuHuoYi-M25T" font-size="110" font-weight="normal" fill="#93C0FF">
          <tspan x="56" y="102">5</tspan>
        </text>
        <path d="M210.583984,51.3183594 L210.583984,100 L192.322266,100 L192.322266,51.3183594 L210.583984,51.3183594 Z M201.501953,29.5898438 C203.975924,29.5898438 206.116202,30.4606033 207.922852,32.2021484 C209.729501,33.9436936 210.632812,36.0025923 210.632812,38.3789062 C210.632812,40.9179814 209.778329,43.0012939 208.069336,44.6289062 C206.360343,46.2565186 204.171237,47.0703125 201.501953,47.0703125 C198.832669,47.0703125 196.643563,46.2565186 194.93457,44.6289062 C193.225577,43.0012939 192.371094,40.9179814 192.371094,38.3789062 C192.371094,36.0025923 193.274405,33.9436936 195.081055,32.2021484 C196.887704,30.4606033 199.027982,29.5898438 201.501953,29.5898438 Z M267.761719,67.4316406 L288.513672,67.96875 C287.146478,78.7109912 283.427439,87.0116895 277.356445,92.8710938 C271.285451,98.730498 263.367236,101.660156 253.601562,101.660156 C243.673127,101.660156 235.364291,98.331739 228.674805,91.6748047 C221.985318,85.0178704 218.640625,76.7578618 218.640625,66.8945312 C218.640625,56.9660962 222.050422,48.6165703 228.870117,41.8457031 C235.689813,35.0748359 244.096304,31.6894531 254.089844,31.6894531 C263.920622,31.6894531 272.123665,35.0097324 278.699219,41.6503906 C283.256533,46.2402573 286.479157,52.6366777 288.367188,60.8398438 L267.126953,62.2558594 C264.750639,54.9641563 260.242221,51.3183594 253.601562,51.3183594 C249.369771,51.3183594 245.878594,52.7831885 243.12793,55.7128906 C240.377265,58.6425928 239.001953,62.369769 239.001953,66.8945312 C239.001953,71.2565322 240.352851,74.8616394 243.054688,77.7099609 C245.756524,80.5582825 249.174458,81.9824219 253.308594,81.9824219 C257.507833,81.9824219 260.852527,80.7291792 263.342773,78.2226562 C265.83302,75.7161333 267.305987,72.1191641 267.761719,67.4316406 Z M319.617188,50.2929688 C326.518264,50.2929688 332.434546,52.7750403 337.366211,57.7392578 C342.297876,62.7034753 344.763672,68.6523091 344.763672,75.5859375 C344.763672,82.6172227 342.265324,88.6067461 337.268555,93.5546875 C332.271785,98.5026289 326.241572,100.976562 319.177734,100.976562 C312.113897,100.976562 306.075546,98.494491 301.0625,93.5302734 C296.049454,88.5660559 293.542969,82.5846704 293.542969,75.5859375 C293.542969,68.4569956 296.049454,62.4593342 301.0625,57.5927734 C306.075546,52.7262126 312.26038,50.2929688 319.617188,50.2929688 Z M319.128906,68.3105469 C317.175771,68.3105469 315.515632,69.0185476 314.148438,70.4345703 C312.781243,71.850593 312.097656,73.5839741 312.097656,75.6347656 C312.097656,77.6530049 312.789381,79.378248 314.172852,80.8105469 C315.556322,82.2428457 317.208324,82.9589844 319.128906,82.9589844 C321.082041,82.9589844 322.750319,82.2428457 324.133789,80.8105469 C325.51726,79.378248 326.208984,77.6530049 326.208984,75.6347656 C326.208984,73.5839741 325.525397,71.850593 324.158203,70.4345703 C322.791009,69.0185476 321.114593,68.3105469 319.128906,68.3105469 Z M382.361328,33.3496094 L400.623047,33.3496094 L400.623047,73.9257812 C400.623047,81.3802456 398.669941,87.4511484 394.763672,92.1386719 C392.517567,94.8405083 389.66115,96.9889243 386.194336,98.5839844 C382.727522,100.179044 379.171242,100.976562 375.525391,100.976562 C368.26624,100.976562 362.146509,98.5351807 357.166016,93.6523438 C352.185522,88.7695068 349.695312,82.7799834 349.695312,75.6835938 C349.695312,68.8150698 352.169246,62.874374 357.117188,57.8613281 C362.065129,52.8482822 367.924445,50.3417969 374.695312,50.3417969 C375.769537,50.3417969 377.397125,50.4394521 379.578125,50.6347656 L379.578125,70.7519531 C378.080722,69.5800723 376.583341,68.9941406 375.085938,68.9941406 C373.197907,68.9941406 371.578457,69.6858655 370.227539,71.0693359 C368.876621,72.4528064 368.201172,74.121084 368.201172,76.0742188 C368.201172,77.962249 368.901035,79.581699 370.300781,80.9326172 C371.700528,82.2835354 373.376943,82.9589844 375.330078,82.9589844 C380.017602,82.9589844 382.361328,79.7200845 382.361328,73.2421875 L382.361328,33.3496094 Z M428.503906,51.3183594 L428.503906,100 L410.242188,100 L410.242188,51.3183594 L428.503906,51.3183594 Z M419.421875,29.5898438 C421.895846,29.5898438 424.036124,30.4606033 425.842773,32.2021484 C427.649423,33.9436936 428.552734,36.0025923 428.552734,38.3789062 C428.552734,40.9179814 427.698251,43.0012939 425.989258,44.6289062 C424.280265,46.2565186 422.091159,47.0703125 419.421875,47.0703125 C416.752591,47.0703125 414.563485,46.2565186 412.854492,44.6289062 C411.145499,43.0012939 410.291016,40.9179814 410.291016,38.3789062 C410.291016,36.0025923 411.194327,33.9436936 413.000977,32.2021484 C414.807626,30.4606033 416.947904,29.5898438 419.421875,29.5898438 Z M482.654297,100 L464.392578,100 L464.392578,72.5097656 C464.392578,69.7102725 463.236991,68.3105469 460.925781,68.3105469 C458.647124,68.3105469 457.507812,69.7102725 457.507812,72.5097656 L457.507812,100 L439.246094,100 L439.246094,72.8515625 C439.246094,66.5038745 441.345682,61.1572483 445.544922,56.8115234 C449.744162,52.4657986 454.887339,50.2929688 460.974609,50.2929688 C467.94079,50.2929688 473.523417,52.81573 477.722656,57.8613281 C481.010433,61.8001499 482.654297,67.2851211 482.654297,74.3164062 L482.654297,100 Z M519.275391,79.9316406 L519.275391,96.6796875 C516.638659,97.6562549 514.115897,98.1445312 511.707031,98.1445312 C505.815075,98.1445312 500.826518,95.9147358 496.741211,91.4550781 C492.655904,86.9954204 490.613281,81.543001 490.613281,75.0976562 C490.613281,68.1314756 493.070939,62.2558833 497.986328,57.4707031 C502.901717,52.6855229 508.940068,50.2929688 516.101562,50.2929688 C519.910175,50.2929688 523.555972,51.0579351 527.039062,52.5878906 C530.522153,54.1178462 533.2565,56.1686069 535.242188,58.7402344 C538.562517,63.0045786 540.222656,69.1894126 540.222656,77.2949219 L540.222656,93.3105469 C540.222656,102.001997 537.756861,109.05759 532.825195,114.477539 C527.89353,119.897488 521.472696,122.607422 513.5625,122.607422 C511.153634,122.607422 508.110044,122.005214 504.431641,120.800781 L504.431641,104.199219 C506.807955,105.501309 509.216785,106.152344 511.658203,106.152344 C514.94598,106.152344 517.485017,105.069998 519.275391,102.905273 C521.065764,100.740549 521.960938,97.6399941 521.960938,93.6035156 L521.960938,75.2929688 C521.960938,70.1822661 519.893901,67.6269531 515.759766,67.6269531 C514.001944,67.6269531 512.463874,68.3024021 511.145508,69.6533203 C509.827142,71.0042385 509.167969,72.558585 509.167969,74.3164062 C509.167969,76.1718843 509.79459,77.7180928 511.047852,78.9550781 C512.301113,80.1920635 513.855459,80.8105469 515.710938,80.8105469 C516.947923,80.8105469 518.136062,80.5175811 519.275391,79.9316406 Z" id="iCoding" fill="#6AAFFF"></path>
      </g>
    </g>
  </g>
</svg>
