<?xml version="1.0" standalone="no"?><!DOCTYPE svg PUBLIC "-//W3C//DTD SVG 1.1//EN" "http://www.w3.org/Graphics/SVG/1.1/DTD/svg11.dtd"><svg t="1528270262363" class="icon" style="" viewBox="0 0 1024 1024" version="1.1" xmlns="http://www.w3.org/2000/svg" p-id="2010" xmlns:xlink="http://www.w3.org/1999/xlink" width="32" height="32"><defs><style type="text/css"></style></defs><path d="M68.399765 590.61565499c-37.07360199 90.76502499-43.465533 176.418105-14.062849 191.75794101 20.45478 11.50587598 53.692423-14.06184901 84.37409399-60.08435499 11.504876 51.135451 42.186547 95.87896999 84.37309401 132.95257199-44.743519 16.619821-74.146204 44.743519-74.146204 75.42519 0 51.135451 79.259149 93.32199801 176.418105 93.321997 88.208052 0 161.07627001-33.237643 175.13811902-77.98216199h20.45477997C535.00975298 990.751357 607.87896999 1023.989 696.087023 1023.989c98.436943 0 176.418105-40.908561 176.41810401-93.321997 0-30.68167001-29.402684-58.80636799-74.14620301-75.42519 42.186547-37.07360199 72.868217-81.81712101 84.37409399-132.95257199 30.68066999 46.02250601 62.640327 71.589231 84.37309301 60.08435499 30.68167001-15.339835 24.289739-102.270901-14.06184901-191.75794101-29.40368401-70.311245-69.03325801-122.72568201-99.71492901-134.230558 0-3.835959 1.27898599-8.949904 1.27898702-14.06284899 0-26.845712-7.66991801-52.413437-20.454781-72.868217v-5.11294501c0-12.783863-2.555973-24.289739-7.66991701-34.51662899C818.813704 145.73643399 701.200968 0 510.72201399 0 320.24206 0 202.630323 145.73643399 194.95940602 329.824457c-5.112945 10.22688996-7.66991801 21.732767-7.66991802 34.51662901v5.11294499c-12.783863 20.45478-20.45478 46.02250601-20.45478 72.869217v14.06184899c-28.12369801 11.504876-69.03225801 62.640327-98.434943 134.230558z" fill="#1296db" p-id="2011"></path></svg>